<svg width="536" height="250" viewBox="0 0 536 250" fill="none" xmlns="http://www.w3.org/2000/svg">
  <path d="M5 204V89.3806L149 5" stroke="#9230DF" stroke-width="10" stroke-miterlimit="10"
    stroke-linecap="round" stroke-linejoin="round" />
  <path d="M23 213V100.109L169 17" stroke="#9230DF" stroke-width="10" stroke-miterlimit="10"
    stroke-linecap="round" stroke-linejoin="round" />
  <path d="M42 223V109.533L188 26" stroke="#9230DF" stroke-width="10" stroke-miterlimit="10"
    stroke-linecap="round" stroke-linejoin="round" />
  <path d="M61 235V120.381L206 36" stroke="#9230DF" stroke-width="10" stroke-miterlimit="10"
    stroke-linecap="round" stroke-linejoin="round" />
  <path d="M224 46V159.755L78 245V130.381L224 46Z" stroke="#9230DF" stroke-width="10"
    stroke-miterlimit="10" stroke-linecap="round" stroke-linejoin="round" />
  <path
    d="M327.481 94.4794L327.436 94.5258L327.397 94.5777L301.798 128.479V95.5408C301.798 95.1015 301.592 94.7416 301.363 94.5094C301.136 94.2783 300.775 94.0601 300.325 94.0601H292.472C292.023 94.0601 291.661 94.2783 291.434 94.5094C291.206 94.7416 291 95.1015 291 95.5408V175.519C291 175.959 291.206 176.318 291.434 176.551C291.661 176.782 292.023 177 292.472 177H300.325C300.775 177 301.136 176.782 301.363 176.551C301.592 176.318 301.798 175.959 301.798 175.519V146.147L310.411 134.813L326.02 176.054L326.058 176.156L326.118 176.248C326.351 176.602 326.802 177 327.427 177H335.753H335.753H335.753H335.754H335.754H335.754H335.755H335.755H335.755H335.756H335.756H335.756H335.757H335.757H335.757H335.758H335.758H335.758H335.759H335.759H335.759H335.76H335.76H335.76H335.761H335.761H335.762H335.762H335.762H335.763H335.763H335.763H335.764H335.764H335.764H335.765H335.765H335.765H335.766H335.766H335.766H335.767H335.767H335.767H335.768H335.768H335.768H335.769H335.769H335.769H335.77H335.77H335.771H335.771H335.771H335.772H335.772H335.772H335.773H335.773H335.773H335.774H335.774H335.774H335.775H335.775H335.775H335.776H335.776H335.776H335.777H335.777H335.777H335.778H335.778H335.778H335.779H335.779H335.78H335.78H335.78H335.781H335.781H335.781H335.782H335.782H335.782H335.783H335.783H335.783H335.784H335.784H335.784H335.785H335.785H335.785H335.786H335.786H335.786H335.787H335.787H335.787H335.788H335.788H335.788H335.789H335.789H335.79H335.79H335.79H335.791H335.791H335.791H335.792H335.792H335.792H335.793H335.793H335.793H335.794H335.794H335.794H335.795H335.795H335.795H335.796H335.796H335.796H335.797H335.797H335.797H335.798H335.798H335.799H335.799H335.799H335.8H335.8H335.8H335.801H335.801H335.801H335.802H335.802H335.802H335.803H335.803H335.803H335.804H335.804H335.804H335.805H335.805H335.805H335.806H335.806H335.806H335.807H335.807H335.808H335.808H335.808H335.809H335.809H335.809H335.81H335.81H335.81H335.811H335.811H335.811H335.812H335.812H335.812H335.813H335.813H335.813H335.814H335.814H335.814H335.815H335.815H335.815H335.816H335.816H335.817H335.817H335.817H335.818H335.818H335.818H335.819H335.819H335.819H335.82H335.82H335.82H335.821H335.821H335.821H335.822H335.822H335.822H335.823H335.823H335.823H335.824H335.824H335.824H335.825H335.825H335.826H335.826H335.826H335.827H335.827H335.827H335.828H335.828H335.828H335.829H335.829H335.829H335.83H335.83H335.83H335.831H335.831H335.831H335.832H335.832H335.832H335.833H335.833H335.833H335.834H335.834H335.835H335.835H335.835H335.836H335.836H335.836H335.837H335.837H335.837H335.838H335.838H335.838H335.839H335.839H335.839H335.84H335.84H335.84H335.841H335.841H335.841H335.842H335.842H335.842H335.843H335.843H335.844H335.844H335.844H335.845H335.845H335.845H335.846H335.846H335.846H335.847H335.847H335.847H335.848H335.848H335.848H335.849H335.849H335.849H335.85H335.85H335.85H335.851H335.851H335.851H335.852H335.852H335.852H335.853H335.853H335.854H335.854H335.854H335.855H335.855H335.855H335.856H335.856H335.856H335.857H335.857H335.857H335.858H335.858H335.858H335.859H335.859H335.859H335.86H335.86H335.86H335.861H335.861H335.861H335.862H335.862H335.863H335.863H335.863H335.864H335.864H335.864H335.865H335.865H335.865H335.866H335.866H335.866H335.867H335.867H335.867H335.868H335.868H335.868H335.869H335.869H335.869H335.87H335.87H335.87H335.871H335.871H335.872H335.872H335.872H335.873H335.873H335.873H335.874H335.874H335.874H335.875H335.875H335.875H335.876H335.876H335.876H335.877H335.877H335.877H335.878H335.878H335.878H335.879H335.879H335.879H335.88H335.88H335.881H335.881H335.881H335.882H335.882H335.882H335.883H335.883H335.883H335.884H335.884H335.884H335.885H335.885H335.885H335.886H335.886H335.886H335.887H335.887H335.887H335.888H335.888H335.888H335.889H335.889H335.89H335.89H335.89H335.891H335.891H335.891H335.892H335.892H335.892H335.893H335.893H335.893H335.894H335.894H335.894H335.895H335.895H335.895H335.896H335.896H335.896H335.897H335.897H335.897H335.898H335.898H335.899H335.899H335.899H335.9H335.9H335.9H335.901H335.901H335.901H335.902H335.902H335.902H335.903H335.903H335.903H335.904H335.904H335.904H335.905H335.905H335.905H335.906H335.906H335.906H335.907H335.907H335.908H335.908H335.908H335.909H335.909H335.909H335.91H335.91H335.91H335.911H335.911H335.911H335.912H335.912H335.912H335.913H335.913H335.913H335.914H335.914H335.914H335.915H335.915H335.915H335.916H335.916H335.916H335.917H335.917H335.918H335.918H335.918H335.919H335.919H335.919H335.92H335.92H335.92H335.921H335.921H335.921H335.922H335.922H335.922H335.923H335.923H335.923H335.924H335.924H335.924H335.925H335.925H335.925H335.926H335.926H335.927H335.927H335.927H335.928H335.928H335.928H335.929H335.929H335.929H335.93H336.03L336.129 176.98C337.099 176.782 337.485 175.783 337.148 175.014L318.065 124.641L339.674 96.5714L339.735 96.4922L339.779 96.4024C339.78 96.4009 339.782 96.3967 339.795 96.3739L339.798 96.3688C339.809 96.3495 339.836 96.3022 339.861 96.2522C339.931 96.1096 340 95.9127 340 95.661C340 95.2217 339.794 94.8618 339.566 94.6296C339.341 94.4005 338.984 94.1841 338.54 94.1803L328.626 94.0002L328.617 94H328.608C328.4 94 328.183 94.0365 327.967 94.1339C327.756 94.2292 327.599 94.36 327.481 94.4794Z"
    fill="#212121" stroke="#212121" stroke-width="2" />
  <path
    d="M398 167.967L398 167.954V167.942C398 166.913 397.197 166.1 396.162 166.1H366.982V95.8419C366.982 94.8125 366.179 94 365.144 94H357.838C356.84 94 356.128 94.8116 356.01 95.6409L356 95.711V95.7817V175.158C356 176.188 356.803 177 357.838 177H395.982C396.428 177 396.889 176.859 397.251 176.531C397.62 176.198 397.817 175.732 397.82 175.233L398 167.967Z"
    fill="#212121" stroke="#212121" stroke-width="2" />
  <path
    d="M428.508 176C439.795 176 449 167.008 449 155.898V114.102C449 102.992 439.795 94 428.508 94H426.492C415.205 94 406 102.992 406 114.102V155.898C406 167.008 415.205 176 426.492 176H428.508ZM427.958 104.802C433.478 104.802 437.957 109.168 437.957 114.581V155.359C437.957 160.72 433.532 165.138 427.958 165.138H427.042C421.522 165.138 417.043 160.772 417.043 155.359V114.581C417.043 109.22 421.468 104.802 427.042 104.802H427.958Z"
    fill="#212121" stroke="#212121" stroke-width="2" />
  <path
    d="M475.046 106.118L498.186 116.404L498.187 116.405C498.264 116.439 498.307 116.467 498.329 116.484C498.34 116.493 498.346 116.498 498.348 116.501L498.351 116.504L498.351 116.505L498.352 116.505L498.353 116.508C498.355 116.512 498.357 116.519 498.361 116.532C498.367 116.558 498.376 116.608 498.376 116.692V174.858C498.376 175.374 498.506 175.944 498.941 176.378C499.376 176.811 499.946 176.94 500.461 176.94L500.47 176.94L507.095 176.88C507.097 176.88 507.098 176.88 507.1 176.88C507.554 176.879 508.076 176.765 508.48 176.363C508.885 175.959 509 175.434 509 174.978V95.9614C509 95.4999 508.897 94.9474 508.472 94.5245C508.048 94.1023 507.496 94 507.035 94H500.401C499.94 94 499.388 94.1023 498.964 94.5245C498.54 94.9474 498.436 95.4999 498.436 95.9614V104.374C498.436 104.511 498.425 104.611 498.412 104.682C498.386 104.675 498.356 104.666 498.322 104.654L498.133 104.56L498.097 104.543L498.06 104.528L477.133 96.1152L477.133 96.115L472.79 94.3724L472.611 94.3004H472.418H465.844H465.844H465.844H465.843H465.843H465.843H465.842H465.842H465.842H465.841H465.841H465.841H465.84H465.84H465.84H465.839H465.839H465.839H465.838H465.838H465.838H465.837H465.837H465.837H465.836H465.836H465.836H465.835H465.835H465.835H465.834H465.834H465.834H465.833H465.833H465.833H465.832H465.832H465.832H465.832H465.831H465.831H465.831H465.83H465.83H465.83H465.829H465.829H465.829H465.829H465.828H465.828H465.828H465.827H465.827H465.827H465.827H465.826H465.826H465.826H465.825H465.825H465.825H465.825H465.824H465.824H465.824H465.823H465.823H465.823H465.823H465.822H465.822H465.822H465.822H465.821H465.821H465.821H465.821H465.82H465.82H465.82H465.82H465.819H465.819H465.819H465.818H465.818H465.818H465.818H465.817H465.817H465.817H465.817H465.816H465.816H465.816H465.816H465.815H465.815H465.815H465.815H465.815H465.814H465.814H465.814H465.814H465.813H465.813H465.813H465.813H465.812H465.812H465.812H465.812H465.811H465.811H465.811H465.811H465.811H465.81H465.81H465.81H465.81H465.809H465.809H465.809H465.809H465.809H465.808H465.808H465.808H465.808H465.807H465.807H465.807H465.807H465.807H465.806H465.806H465.806H465.806H465.805H465.805H465.805H465.805H465.805H465.804H465.804H465.804H465.804H465.804H465.803H465.803H465.803H465.803H465.803H465.802H465.802H465.802H465.802H465.802H465.801H465.801H465.801H465.801H465.801H465.8H465.8H465.8H465.8H465.8H465.799H465.799H465.799H465.799H465.799H465.798H465.798H465.798H465.798H465.798H465.797H465.797H465.797H465.797H465.797H465.797H465.796H465.796H465.796H465.796H465.796H465.795H465.795H465.795H465.795H465.795H465.794H465.794H465.794H465.794H465.794H465.794H465.793H465.793H465.793H465.793H465.793H465.792H465.792H465.792H465.792H465.792H465.792H465.791H465.791H465.791H465.791H465.791H465.79H465.79H465.79H465.79H465.79H465.79H465.789H465.789H465.789H465.789H465.789H465.788H465.788H465.788H465.788H465.788H465.788H465.787H465.787H465.787H465.787H465.787H465.786H465.786H465.786H465.786H465.786H465.786H465.785H465.785H465.785H465.785H465.785H465.785H465.784H465.784H465.784H465.784H465.784H465.783H465.783H465.783H465.783H465.783H465.783H465.782H465.782H465.782H465.782H465.782H465.782H465.781H465.781H465.781H465.781H465.781H465.78H465.78H465.78H465.78H465.78H465.78H465.779H465.779H465.779H465.779H465.779H465.779H465.778H465.778H465.778H465.778H465.778H465.777H465.777H465.777H465.777H465.777H465.777H465.776H465.776H465.776H465.776H465.776H465.775H465.775H465.775H465.775H465.775H465.775H465.774H465.774H465.774H465.774H465.774H465.773H465.773H465.773H465.773H465.773H465.772H465.772H465.772H465.772H465.772H465.772H465.771H465.771H465.771H465.771H465.771H465.77H465.77H465.77H465.77H465.77H465.769H465.769H465.769H465.769H465.769H465.768H465.768H465.768H465.768H465.768H465.767H465.767H465.767H465.767H465.767H465.766H465.766H465.766H465.766H465.766H465.765H465.765H465.765H465.765H465.765H465.764H465.764H465.764H465.764H465.764H465.763H465.763H465.763H465.763H465.763H465.762H465.762H465.762H465.762H465.761H465.761H465.761H465.761H465.761H465.76H465.76H465.76H465.76H465.76H465.759H465.759H465.759H465.759H465.758H465.758H465.758H465.758H465.758H465.757H465.757H465.757H465.757H465.756H465.756H465.756H465.756H465.755H465.755H465.755H465.755H465.754H465.754H465.754H465.754H465.754H465.753H465.753H465.753H465.753H465.752H465.752H465.752H465.752H465.751H465.751H465.751H465.751H465.75H465.75H465.75H465.75H465.749H465.749H465.749H465.749H465.748H465.748H465.748H465.748H465.747H465.747H465.747H465.746H465.746H465.746H465.746H465.745H465.745H465.745H465.745H465.744H465.744H465.744H465.743H465.743H465.743H465.743H465.742H465.742H465.742H465.741H465.741H465.741H465.741H465.74H465.74H465.74H465.739H465.739H465.739H465.739H465.738H465.738H465.738H465.737H465.737H465.737H465.736H465.736H465.736H465.736H465.735H465.735H465.735H465.734H465.734H465.734H465.733H465.733H465.733H465.732H465.732H465.732H465.731H465.731H465.731H465.731H465.73H465.73H465.73H465.729H465.729H465.729H465.728H465.728H465.728H465.727H465.727H465.726H465.726H465.726H465.725H465.725H465.725H465.724H465.724H465.724H465.601L465.482 94.3301C465.091 94.4276 464.694 94.6252 464.401 94.9898C464.106 95.3579 464 95.7915 464 96.2018V175.039C464 175.5 464.103 176.053 464.528 176.476C464.952 176.898 465.504 177 465.965 177H465.978L465.99 177L473.095 176.82C473.547 176.817 474.065 176.702 474.466 176.303C474.871 175.899 474.986 175.374 474.986 174.918V174.906C474.986 156.643 474.986 138.442 475.046 120.241V120.237V119.997V106.118ZM474.233 105.804C474.233 105.804 474.233 105.804 474.234 105.805L474.233 105.804Z"
    fill="#212121" stroke="#212121" stroke-width="2" />
  <path
    d="M525 94C524.448 94 524 94.4477 524 95V176C524 176.552 524.448 177 525 177H534C534.552 177 535 176.552 535 176V95C535 94.4477 534.552 94 534 94H525Z"
    fill="#212121" stroke="#212121" stroke-width="2" stroke-miterlimit="10" stroke-linejoin="round" />
</svg>