<svg width="889" height="974" viewBox="0 0 889 974" fill="none" xmlns="http://www.w3.org/2000/svg">
  <path fill-rule="evenodd" clip-rule="evenodd"
    d="M591.939 7.41461C596.13 14.5608 593.734 23.7511 586.588 27.9417L30 354.333V795.002C30 803.287 23.2843 810.002 15 810.002C6.71573 810.002 0 803.287 0 795.002V345.74C0 340.418 2.82073 335.494 7.4122 332.801L571.412 2.06311C578.558 -2.12751 587.749 0.268439 591.939 7.41461ZM671.028 56.5687C675.134 63.7642 672.629 72.9254 665.434 77.0309L103 397.94V831.002C103 839.287 96.2843 846.002 88 846.002C79.7157 846.002 73 839.287 73 831.002V389.228C73 383.842 75.888 378.869 80.5663 376.2L650.566 50.974C657.762 46.8684 666.923 49.3733 671.028 56.5687ZM738.463 113.014C745.649 108.893 748.133 99.7257 744.012 92.5396C739.89 85.3534 730.723 82.869 723.537 86.9906L153.537 413.912C148.875 416.586 146 421.55 146 426.924V871.002C146 879.287 152.716 886.002 161 886.002C169.284 886.002 176 879.287 176 871.002V435.613L738.463 113.014ZM816.987 132.496C821.132 139.668 818.679 148.843 811.506 152.989L249 478.124V917.002C249 925.287 242.284 932.002 234 932.002C225.716 932.002 219 925.287 219 917.002V469.468C219 464.112 221.856 459.162 226.494 456.482L796.494 127.016C803.666 122.87 812.841 125.324 816.987 132.496ZM889 179.002C889 173.638 886.135 168.681 881.486 166.004C876.837 163.327 871.112 163.336 866.472 166.028L296.472 496.766C291.847 499.45 289 504.393 289 509.741V959.002C289 964.379 291.878 969.344 296.543 972.017C301.208 974.69 306.947 974.662 311.586 971.943L881.586 637.819C886.178 635.126 889 630.202 889 624.878V179.002ZM319 932.823V518.379L859 205.048V616.284L319 932.823Z"
    fill="url(#paint0_linear_6_19)" />
  <defs>
    <linearGradient id="paint0_linear_6_19" x1="444.5" y1="0" x2="444.5" y2="974.002"
      gradientUnits="userSpaceOnUse">
      <stop offset="0.23" stop-color="#9230DF" />
      <stop offset="1" stop-color="#7625B5" />
    </linearGradient>
  </defs>
</svg>